<svg id="Layer_1" data-name="Layer 1" xmlns="http://www.w3.org/2000/svg" viewBox="0 0 400 399.88"><defs><style>.cls-1,.cls-2{fill:none;stroke:#324c5e;stroke-linecap:round;stroke-linejoin:round;}.cls-1{stroke-width:14px;}.cls-2{stroke-width:10px;}</style></defs><g id="Layer_2" data-name="Layer 2"><g id="Layer_1-2" data-name="Layer 1-2"><path class="cls-1" d="M354.66,324.67l-29.88,29.88-76.72-76.72,30.36-29.4ZM172.46,45.32A127.12,127.12,0,1,1,45.34,172.44h0A127.12,127.12,0,0,1,172.46,45.32Zm-1.29,25A103.15,103.15,0,0,1,274.34,173.41v0"/><path class="cls-1" d="M102.49,279.9V119.68a6.33,6.33,0,0,1,6.31-6.36h92.45"/><path class="cls-1" d="M242.43,154.54V279.9"/><path class="cls-1" d="M242.43,154.54H207.57a6.34,6.34,0,0,1-6.33-6.32v-34.9l41.19,41.18Z"/><line class="cls-1" x1="126.41" y1="216.87" x2="218.51" y2="216.87"/><line class="cls-1" x1="126.41" y1="239.4" x2="218.51" y2="239.4"/><line class="cls-1" x1="126.41" y1="261.93" x2="183.99" y2="261.93"/><path class="cls-2" d="M141.34,145.32c0,9.13,6.31,15.49,14.1,15.49s14.1-6.36,14.1-15.49C169.54,127.5,141.33,128,141.34,145.32Z"/><path class="cls-2" d="M126.41,193.86V179.45a14.31,14.31,0,0,1,14.26-14.26h29.47a14.32,14.32,0,0,1,14.26,14.26v14.41"/><line class="cls-2" x1="140.79" y1="193.86" x2="140.79" y2="182.43"/><line class="cls-2" x1="170.01" y1="182.43" x2="170.01" y2="193.86"/></g></g></svg>