<svg id="Layer_1" data-name="Layer 1" xmlns="http://www.w3.org/2000/svg" viewBox="0 0 400 400"><defs><style>.cls-1{fill:none;stroke:#324c5e;stroke-linecap:round;stroke-linejoin:round;stroke-width:12.49px;}</style></defs><g id="Layer_2" data-name="Layer 2"><g id="Layer_1-2" data-name="Layer 1-2"><path class="cls-1" d="M312,127.55V328.24a10.31,10.31,0,0,1-10.12,10.11H98.13A10.22,10.22,0,0,1,88,328.2V71.76A10.14,10.14,0,0,1,98.13,61.65H246.07"/><path class="cls-1" d="M312,127.55h-55.8a10.14,10.14,0,0,1-10.12-10.11V61.65L312,127.55Z"/><line class="cls-1" x1="126.29" y1="227.32" x2="273.72" y2="227.32"/><line class="cls-1" x1="126.29" y1="263.39" x2="273.72" y2="263.39"/><line class="cls-1" x1="126.29" y1="299.45" x2="218.46" y2="299.45"/><path class="cls-1" d="M150.12,112.82c0,14.62,10.1,24.79,22.57,24.79s22.58-10.17,22.58-24.79C195.27,84.27,150.12,85.17,150.12,112.82Z"/><path class="cls-1" d="M126.29,190.49V167.43a22.89,22.89,0,0,1,22.82-22.83h47.17a22.9,22.9,0,0,1,22.85,22.83v23.06"/><line class="cls-1" x1="149.31" y1="190.49" x2="149.31" y2="172.2"/><line class="cls-1" x1="196.08" y1="172.2" x2="196.08" y2="190.49"/></g></g></svg>