<svg xmlns="http://www.w3.org/2000/svg" viewBox="0 0 344.27 344.8"><defs><style>.cls-1,.cls-15,.cls-17,.cls-18,.cls-19,.cls-21,.cls-22,.cls-23,.cls-24,.cls-31,.cls-32,.cls-33,.cls-35,.cls-36,.cls-37,.cls-38,.cls-4,.cls-40,.cls-5,.cls-6,.cls-7{fill:none;}.cls-1{stroke:#fc5185;stroke-width:20px;}.cls-1,.cls-10,.cls-11,.cls-12,.cls-13,.cls-14,.cls-15,.cls-17,.cls-18,.cls-22,.cls-23,.cls-25,.cls-26,.cls-27,.cls-28,.cls-31,.cls-32,.cls-33,.cls-35,.cls-36,.cls-37,.cls-38,.cls-4,.cls-40,.cls-41,.cls-42,.cls-45,.cls-49,.cls-6,.cls-8,.cls-9{stroke-miterlimit:10;}.cls-12,.cls-14,.cls-2,.cls-8{fill:#6b968b;}.cls-3{fill:#c7ddeb;}.cls-10,.cls-11,.cls-12,.cls-13,.cls-14,.cls-15,.cls-17,.cls-18,.cls-19,.cls-21,.cls-22,.cls-23,.cls-24,.cls-25,.cls-26,.cls-27,.cls-28,.cls-31,.cls-32,.cls-33,.cls-34,.cls-35,.cls-36,.cls-37,.cls-38,.cls-4,.cls-40,.cls-41,.cls-42,.cls-45,.cls-49,.cls-5,.cls-6,.cls-7,.cls-8,.cls-9{stroke:#3d4451;}.cls-4,.cls-5{stroke-width:2.66px;}.cls-19,.cls-21,.cls-24,.cls-34,.cls-5,.cls-7{stroke-linejoin:round;}.cls-6{stroke-width:2.32px;}.cls-7,.cls-8,.cls-9{stroke-width:1.39px;}.cls-10,.cls-11,.cls-13,.cls-20,.cls-41,.cls-9{fill:#7eb9c7;}.cls-10{stroke-width:1.91px;}.cls-11{stroke-width:1.62px;}.cls-12{stroke-width:1.2px;}.cls-13{stroke-width:1.22px;}.cls-14{stroke-width:1.37px;}.cls-15{stroke-width:2.18px;}.cls-16{fill:#7cbc31;}.cls-17{stroke-width:1.71px;}.cls-18{stroke-width:1.67px;}.cls-19,.cls-23,.cls-24,.cls-34{stroke-linecap:round;}.cls-19{stroke-width:2.06px;}.cls-21,.cls-22,.cls-23,.cls-24{stroke-width:2.07px;}.cls-25,.cls-26{fill:#4ece46;}.cls-25{stroke-width:2.35px;}.cls-26{stroke-width:2.03px;}.cls-27,.cls-28,.cls-30{fill:#f04f4c;}.cls-27{stroke-width:1.7px;}.cls-28{stroke-width:1.63px;}.cls-29,.cls-34{fill:#fdc345;}.cls-31{stroke-width:2.62px;}.cls-32{stroke-width:2.83px;}.cls-33{stroke-width:2.21px;}.cls-34{stroke-width:1.39px;}.cls-35{stroke-width:1.94px;}.cls-36{stroke-width:2.52px;}.cls-37{stroke-width:1.69px;}.cls-38{stroke-width:3.23px;}.cls-39{fill:#f5fafc;}.cls-40,.cls-41{stroke-width:1.83px;}.cls-42,.cls-45,.cls-49{fill:#3fc1c9;}.cls-42{stroke-width:1.48px;}.cls-43{font-size:15.84px;font-family:Share-Bold, Share;font-weight:700;}.cls-44{letter-spacing:-0.01em;}.cls-45{stroke-width:1.56px;}.cls-46{letter-spacing:-0.01em;}.cls-47{letter-spacing:-0.01em;}.cls-48{letter-spacing:0em;}.cls-49{stroke-width:1.78px;}</style></defs><g id="Layer_2" data-name="Layer 2"><g id="Layer_1-2" data-name="Layer 1"><path class="cls-1" d="M217.39,312a121.68,121.68,0,0,1-117-2.2"/><path class="cls-1" d="M235.39,108.42a121.34,121.34,0,0,1,46.92,91.49"/><path class="cls-1" d="M40.13,217.91a122.84,122.84,0,0,1-.74-13.5,121.34,121.34,0,0,1,52-99.67"/><path class="cls-2" d="M127.33,94.69c0,4-2.36,7.07-4.62,7.07s-5.17-3.25-5.17-7.25,2.91-11.91,5.17-11.91S127.33,90.68,127.33,94.69Z"/><polyline class="cls-3" points="179.15 1.33 192.91 10.85 192.91 53.89 201.64 62.13 201.64 109.56"/><polyline class="cls-3" points="173.52 11.92 160.87 23.66 160.87 39.48 160.87 108.6 173.9 108.6"/><polyline class="cls-3" points="142.99 108.6 142.99 51.81 157.53 40.31 157.53 108.83"/><polyline class="cls-4" points="162.19 108.92 162.19 37.68 149.69 46.49 149.23 46.82 134.28 57.36 134.28 109.61"/><polyline class="cls-5" points="148.26 47.2 148.26 23.92 179.15 1.33 179.15 77.27 188.5 86.1 188.5 108.6"/><polyline class="cls-6" points="179.15 1.33 192.91 10.85 192.91 53.89 201.64 62.13 201.64 109.56"/><line class="cls-7" x1="172.85" y1="5.93" x2="172.85" y2="109.05"/><polygon class="cls-8" points="172.8 18.7 148.95 34.83 148.95 30.31 172.8 14.17 172.8 18.7"/><rect class="cls-9" x="164.9" y="64.65" width="5.72" height="5.41"/><rect class="cls-10" x="179.24" y="23.19" width="7.87" height="7.44"/><rect class="cls-11" x="144.29" y="81.1" width="8.35" height="7.89"/><polygon class="cls-12" points="179.6 48.54 201.77 66.57 201.78 62.29 179.61 44.26 179.6 48.54"/><polyline class="cls-3" points="177.33 81.78 185.32 89.33 185.32 108.6 177.33 108.6"/><rect class="cls-9" x="177.33" y="96.43" width="5.72" height="5.41"/><rect class="cls-9" x="191.24" y="75.25" width="5.72" height="5.41"/><rect class="cls-13" x="184.35" y="66.03" width="5" height="4.73"/><polygon class="cls-14" points="161.59 53.1 134.88 70.84 134.88 66.14 161.59 48.4 161.59 53.1"/><path class="cls-15" d="M127.33,93.59c0,4.63-3,8.17-5.91,8.17s-6.61-3.75-6.61-8.39,3.71-13.76,6.61-13.76S127.33,89,127.33,93.59Z"/><line class="cls-15" x1="121.19" y1="109.72" x2="121.19" y2="97.46"/><path class="cls-16" d="M107.55,88.52c-1.77,0-4,6.17-4,9.3s2.26,5.68,4,5.68,3.62-2.4,3.62-5.53S109.32,88.52,107.55,88.52Z"/><path class="cls-17" d="M106.54,103.5c2.26,0,4.63-2.77,4.63-6.39s-2.37-10.93-4.63-10.93-5.16,7.14-5.16,10.76S104.28,103.5,106.54,103.5Z"/><line class="cls-17" x1="106.82" y1="109.72" x2="106.82" y2="100.13"/><path class="cls-2" d="M220.22,95.12c0,4-2.36,7.07-4.62,7.07s-5.17-3.25-5.17-7.25S213.33,83,215.6,83,220.22,91.11,220.22,95.12Z"/><path class="cls-15" d="M220.22,94c0,4.63-3,8.17-5.92,8.17s-6.6-3.75-6.6-8.39S211.41,80,214.3,80,220.22,89.38,220.22,94Z"/><line class="cls-15" x1="214.08" y1="110.15" x2="214.08" y2="97.89"/><path class="cls-16" d="M233.88,98.67c0,3.06-1.8,5.4-3.53,5.4s-3.94-2.48-3.94-5.54,2.21-9.09,3.94-9.09S233.88,95.61,233.88,98.67Z"/><path class="cls-18" d="M233.88,97.83c0,3.54-2.31,6.24-4.52,6.24s-5-2.87-5-6.4,2.83-10.52,5-10.52S233.88,94.29,233.88,97.83Z"/><line class="cls-18" x1="229.19" y1="110.15" x2="229.19" y2="100.79"/><path class="cls-3" d="M163.13,223.06s-4.92,4.51-6.37,4.64-2.87-3.35-2.87-3.35a10.49,10.49,0,0,1-5.11,0c-2.3-.74-1.73-4.24-1.73-4.24l-4.42-1.39-4.66-3v29.9h47.15V218.76s-2.07,1.22-3.68.73h0s-.92,6.12-4.14,5.39-3.73-2.37-3.73-2.37l-6.75,3.12-3.69-2.57"/><polyline class="cls-19" points="131.99 237.55 131.99 249.81 192.49 249.81 192.49 215.54"/><line class="cls-19" x1="131.98" y1="215.54" x2="131.98" y2="231.99"/><polygon class="cls-20" points="186.73 187.7 200.73 205.13 216.18 191.84 203.76 175.28 186.73 187.7"/><polygon class="cls-20" points="137.97 187.01 125.31 207.26 106.45 195.62 119.33 175.97 137.97 187.01"/><path class="cls-21" d="M182.56,183.88l-4.84,2.67-9.24-3.13a6.92,6.92,0,0,0-5.08.26L153.09,192c-1.73,1.39.89,4.3,2.36,4.66a4.26,4.26,0,0,0,2-.13c3.83-.92,7.53-2.66,11.21-4.05a.71.71,0,0,1,.32-.07.8.8,0,0,1,.4.2q8,6.41,15.93,12.78l3.91,3.14,7.25-7.08Z"/><path class="cls-22" d="M160.83,185.29l-4.17-2.49a5.79,5.79,0,0,0-4.8-.16l-8.4,3.49-3.16-1.33-11,17.5,8.51,7.5"/><path class="cls-22" d="M138.36,215.28h0a3.33,3.33,0,0,1-.38-4.7l2.92-3.42a3.34,3.34,0,0,1,4.7-.38h0a3.34,3.34,0,0,1,.38,4.7l-2.92,3.43A3.33,3.33,0,0,1,138.36,215.28Z"/><path class="cls-22" d="M143.43,219.61h0a3.33,3.33,0,0,1-.37-4.7l4.47-5.25a3.33,3.33,0,0,1,4.7-.37h0a3.33,3.33,0,0,1,.37,4.7l-4.47,5.24A3.34,3.34,0,0,1,143.43,219.61Z"/><rect class="cls-22" x="149.63" y="212.74" width="6.67" height="11.93" rx="3.22" transform="translate(178.36 -46.97) rotate(40.43)"/><path class="cls-22" d="M154.84,226.24h0a3.25,3.25,0,0,1,0-4.58l3.33-3.33a3.23,3.23,0,0,1,4.58,0h0a3.25,3.25,0,0,1,0,4.58l-3.33,3.33A3.25,3.25,0,0,1,154.84,226.24Z"/><path class="cls-23" d="M170.64,203.3l14.72,10.77a3.34,3.34,0,0,0,4.67-.67h0a3.33,3.33,0,0,0-.67-4.66l-5.72-4.61"/><path class="cls-23" d="M168.14,209.63l13.22,9.77a3.32,3.32,0,0,0,4.66-.66h0a3.33,3.33,0,0,0-.66-4.67"/><path class="cls-23" d="M164.13,215.3l10.73,7.94a3.33,3.33,0,0,0,4.66-.67h0a3.33,3.33,0,0,0-.66-4.67l-10.72-8.27"/><polygon class="cls-24" points="180.81 180.96 199.64 205.13 217.33 191.69 198.58 167.81 180.81 180.96"/><polygon class="cls-24" points="142.63 181.53 126.13 206.97 106.45 194.82 123.79 168.63 142.63 181.53"/><path class="cls-23" d="M173,222.8l-.27.35a5.48,5.48,0,0,1-7,1.37l-2.61-1.72"/><path class="cls-25" d="M160.22,176.37a2.82,2.82,0,0,1-1.85-.81l-9-8.75a1.86,1.86,0,0,1,.26-2.95,2.85,2.85,0,0,1,3.51.22l7,6.81,15.17-15.57a2.83,2.83,0,0,1,3.5-.3,1.86,1.86,0,0,1,.37,2.93l-17.05,17.57a2.64,2.64,0,0,1-1.9.85Z"/><line class="cls-26" x1="155.56" y1="240.27" x2="169.02" y2="240.27"/><line class="cls-26" x1="153.84" y1="233.14" x2="171.09" y2="233.14"/><polyline class="cls-27" points="177.83 242.71 177.83 255.95 182.32 250.89 186.65 256.32 186.65 243.29"/><ellipse class="cls-28" cx="182.21" cy="240.82" rx="5.53" ry="5.27"/><path class="cls-20" d="M261.25,216.67h38.17c3.17,0,5.76,3,5.76,6.57v16.87c0,3.61-2.59,6.57-5.76,6.57h-4.51l.3,10.05-8.65-10.05H261.25c-3.17,0-5.76-3-5.76-6.57V223.24C255.49,219.62,258.08,216.67,261.25,216.67Z"/><path class="cls-29" d="M272.07,224.49h-34.8c-2.88,0-5.24,2-5.24,4.41v11.32c0,2.42,2.36,4.41,5.24,4.41h4.11l-.94,8.65,8.56-8.65h23.07c2.89,0,5.25-2,5.25-4.41V228.9C277.32,226.47,275,224.49,272.07,224.49Z"/><path class="cls-30" d="M272.22,221.5H252.51v14.15c0,4.25,2.22,7.72,4.94,7.72h16.84A4.9,4.9,0,0,0,277,239V226.4A4.85,4.85,0,0,0,272.22,221.5Z"/><path class="cls-3" d="M243.51,285.41a10.16,10.16,0,1,0-9.61-9.62A10.15,10.15,0,0,0,243.51,285.41Z"/><path class="cls-3" d="M258.86,307.32a3.34,3.34,0,0,0,3.28-4c-1.75-8.82-8.94-16.71-17.55-16.72s-15.81,7.87-17.58,16.68a3.35,3.35,0,0,0,3.27,4Z"/><path class="cls-31" d="M239,282.83a10.16,10.16,0,1,0-9.61-9.62A10.16,10.16,0,0,0,239,282.83Z"/><path class="cls-31" d="M254.36,304.74a3.35,3.35,0,0,0,3.28-4c-1.75-8.81-8.94-16.7-17.55-16.71s-15.81,7.87-17.58,16.68a3.34,3.34,0,0,0,3.27,4Z"/><path class="cls-32" d="M239,282.83a10.16,10.16,0,1,0-9.61-9.62A10.16,10.16,0,0,0,239,282.83Z"/><path class="cls-32" d="M254.36,304.74a3.35,3.35,0,0,0,3.28-4c-1.75-8.81-8.94-16.7-17.55-16.71s-15.81,7.87-17.58,16.68a3.34,3.34,0,0,0,3.27,4Z"/><path class="cls-3" d="M269.4,273.75a8.58,8.58,0,1,0-8.12-8.13A8.57,8.57,0,0,0,269.4,273.75Z"/><path class="cls-3" d="M282.37,292.27a2.84,2.84,0,0,0,2.77-3.39c-1.48-7.45-7.55-14.12-14.83-14.12S257,281.4,255.46,288.85a2.82,2.82,0,0,0,2.76,3.39Z"/><path class="cls-33" d="M265.59,271.57a8.58,8.58,0,1,0-8.12-8.13A8.57,8.57,0,0,0,265.59,271.57Z"/><path class="cls-33" d="M278.56,290.08a2.82,2.82,0,0,0,2.77-3.38c-1.48-7.45-7.55-14.12-14.83-14.13s-13.36,6.65-14.85,14.1a2.83,2.83,0,0,0,2.76,3.39Z"/><path class="cls-33" d="M265.59,271.57a8.58,8.58,0,1,0-8.12-8.13A8.57,8.57,0,0,0,265.59,271.57Z"/><path class="cls-33" d="M278.56,290.08a2.82,2.82,0,0,0,2.77-3.38c-1.48-7.45-7.55-14.12-14.83-14.13s-13.36,6.65-14.85,14.1a2.83,2.83,0,0,0,2.76,3.39Z"/><path class="cls-3" d="M297.76,286.27a10.16,10.16,0,1,0-9.62-9.62A10.16,10.16,0,0,0,297.76,286.27Z"/><path class="cls-3" d="M313.11,308.18a3.33,3.33,0,0,0,3.27-4c-1.75-8.82-8.93-16.71-17.54-16.72s-15.81,7.87-17.58,16.68a3.34,3.34,0,0,0,3.27,4Z"/><path class="cls-31" d="M293.25,283.69a10.16,10.16,0,1,0-9.61-9.62A10.16,10.16,0,0,0,293.25,283.69Z"/><path class="cls-31" d="M308.6,305.6a3.35,3.35,0,0,0,3.28-4c-1.75-8.82-8.94-16.71-17.55-16.72s-15.81,7.87-17.58,16.68a3.34,3.34,0,0,0,3.27,4Z"/><path class="cls-32" d="M293.25,283.69a10.16,10.16,0,1,0-9.61-9.62A10.16,10.16,0,0,0,293.25,283.69Z"/><path class="cls-32" d="M308.6,305.6a3.35,3.35,0,0,0,3.28-4c-1.75-8.82-8.94-16.71-17.55-16.72s-15.81,7.87-17.58,16.68a3.34,3.34,0,0,0,3.27,4Z"/><path class="cls-34" d="M271.06,233.86a6.52,6.52,0,0,0,.22-1.71l1.82-.81-.72-2.57-1.94.25a6.38,6.38,0,0,0-1.09-1.42l.69-1.8-2.33-1.31-1.16,1.5a6.22,6.22,0,0,0-1.83-.24L264,224l-2.58.73.24,1.84a6.38,6.38,0,0,0-1.47,1.16l-1.74-.67-1.3,2.33,1.48,1.15a6.55,6.55,0,0,0-.2,1.83l-1.73.77.72,2.57,1.92-.24a6.51,6.51,0,0,0,1.12,1.38l-.7,1.83,2.33,1.31,1.22-1.58a6.5,6.5,0,0,0,1.71.19l.82,1.84,2.58-.73-.26-2a6.16,6.16,0,0,0,1.33-1.05l1.9.73,1.3-2.33Zm-6.79,1.53a3.28,3.28,0,1,1,3.82-2.63A3.28,3.28,0,0,1,264.27,235.39Z"/><path class="cls-35" d="M271.48,220.68H233.63c-3.14,0-5.71,2.31-5.71,5.13V239c0,2.82,2.57,5.13,5.71,5.13h4.47l-.69,10.34,9-10.34h25.09c3.14,0,5.71-2.31,5.71-5.13V225.81C277.19,223,274.62,220.68,271.48,220.68Z"/><path class="cls-36" d="M257.41,211.45h39c3.23,0,5.88,3.23,5.88,7.17V237c0,3.94-2.65,7.17-5.88,7.17h-4.6l1.14,11.63-9.68-11.63H257.41c-3.23,0-5.88-3.23-5.88-7.17v-18.4C251.53,214.68,254.18,211.45,257.41,211.45Z"/><polygon class="cls-30" points="11.19 229.31 12.95 233.18 20.5 234.03 16.08 238.89 17.36 245.7 11.41 242.21 5.46 245.93 7.96 238.16 4.75 234.74 8.93 234.62 11.19 229.31"/><polygon class="cls-37" points="10.12 227.83 12.69 233.03 18.42 233.88 14.27 237.92 15.24 243.63 10.11 240.93 4.97 243.62 5.96 237.91 1.81 233.86 7.55 233.03 10.12 227.83"/><path class="cls-3" d="M66.64,278.38a10.24,10.24,0,1,0-9.9-9.69A10.36,10.36,0,0,0,66.64,278.38Z"/><path class="cls-3" d="M82.36,307.85a3.5,3.5,0,0,0,3.28-4.27c-1.76-9.37-9-17.75-17.59-17.75s-15.82,8.38-17.58,17.75a3.5,3.5,0,0,0,3.28,4.27Z"/><path class="cls-38" d="M66.27,279a13.43,13.43,0,1,0-12.72-12.71A13.42,13.42,0,0,0,66.27,279Z"/><path class="cls-38" d="M86.59,308a4.43,4.43,0,0,0,4.33-5.3C88.59,291,79.08,280.6,67.7,280.6S46.81,291,44.49,302.68a4.42,4.42,0,0,0,4.32,5.3Z"/><path class="cls-39" d="M38.35,263.28H31.9v-9.21a1.06,1.06,0,0,0-.46-.81H27.74c-.61,0-.76.3-.76.3s-3.34,7.65-4.81,10.13a5.29,5.29,0,0,1-4.46,2.39v13.17h4.36l2.84,2.43h12a3.11,3.11,0,0,0,2-.74l1.44-1.21a3.12,3.12,0,0,0,1.13-2.41V266.43a3.16,3.16,0,0,0-1.52-2.7h0A3.22,3.22,0,0,0,38.35,263.28Z"/><path class="cls-29" d="M37.15,267H31.07v-7.22a.84.84,0,0,0-.43-.63H27.16c-.58,0-.72.24-.72.24s-3.14,6-4.53,7.93-4.2,1.86-4.2,1.86v10.31h4.1l2.68,1.9H35.8a3.37,3.37,0,0,0,1.91-.58l1.36-.94A2.33,2.33,0,0,0,40.13,278V269.5a2.43,2.43,0,0,0-1.44-2.11h0A3.44,3.44,0,0,0,37.15,267Z"/><path class="cls-40" d="M38.35,263.28H31.9v-9.21a1.06,1.06,0,0,0-.46-.81H27.74c-.61,0-.76.3-.76.3s-3.34,7.65-4.81,10.13a5.29,5.29,0,0,1-4.46,2.39v13.17h4.36l2.84,2.43h12a3.11,3.11,0,0,0,2-.74l1.44-1.21a3.12,3.12,0,0,0,1.13-2.41V266.43a3.16,3.16,0,0,0-1.52-2.7h0A3.22,3.22,0,0,0,38.35,263.28Z"/><rect class="cls-41" x="4.89" y="264.08" width="14.48" height="17.32"/><rect class="cls-39" x="6.08" y="265.17" width="12.16" height="3.4"/><polygon class="cls-37" points="10.12 227.83 12.69 233.03 18.42 233.88 14.27 237.92 15.24 243.63 10.11 240.93 4.97 243.62 5.96 237.91 1.81 233.86 7.55 233.03 10.12 227.83"/><polygon class="cls-30" points="29.5 229.31 31.27 233.18 38.82 234.03 34.4 238.89 35.67 245.7 29.73 242.21 23.78 245.93 26.28 238.16 23.07 234.74 27.25 234.62 29.5 229.31"/><polygon class="cls-37" points="28.44 227.83 31 233.03 36.74 233.88 32.58 237.92 33.56 243.63 28.43 240.93 23.29 243.62 24.28 237.91 20.13 233.86 25.87 233.03 28.44 227.83"/><polygon class="cls-37" points="28.44 227.83 31 233.03 36.74 233.88 32.58 237.92 33.56 243.63 28.43 240.93 23.29 243.62 24.28 237.91 20.13 233.86 25.87 233.03 28.44 227.83"/><polygon class="cls-30" points="47.82 229.31 49.59 233.18 57.14 234.03 52.71 238.89 53.99 245.7 48.05 242.21 42.1 245.93 44.59 238.16 41.38 234.74 45.57 234.62 47.82 229.31"/><polygon class="cls-37" points="46.76 227.83 49.32 233.03 55.06 233.88 50.9 237.92 51.87 243.63 46.74 240.93 41.61 243.62 42.59 237.91 38.45 233.86 44.19 233.03 46.76 227.83"/><polygon class="cls-37" points="46.76 227.83 49.32 233.03 55.06 233.88 50.9 237.92 51.87 243.63 46.74 240.93 41.61 243.62 42.59 237.91 38.45 233.86 44.19 233.03 46.76 227.83"/><polygon class="cls-30" points="66.14 229.31 67.9 233.18 75.46 234.03 71.03 238.89 72.31 245.7 66.37 242.21 60.42 245.93 62.91 238.16 59.7 234.74 63.88 234.62 66.14 229.31"/><polygon class="cls-37" points="65.08 227.83 67.64 233.03 73.37 233.88 69.22 237.92 70.19 243.63 65.06 240.93 59.92 243.62 60.91 237.91 56.76 233.86 62.5 233.03 65.08 227.83"/><polygon class="cls-37" points="65.08 227.83 67.64 233.03 73.37 233.88 69.22 237.92 70.19 243.63 65.06 240.93 59.92 243.62 60.91 237.91 56.76 233.86 62.5 233.03 65.08 227.83"/><rect class="cls-42" x="127.89" y="47.41" width="81" height="27"/><text class="cls-43" transform="translate(133.29 65.45)"><tspan class="cls-44">C</tspan><tspan x="6.7" y="0">ompanies</tspan></text><rect class="cls-45" x="1.39" y="316.91" width="90" height="27"/><text class="cls-43" transform="translate(10.1 335.28)"><tspan class="cls-46">F</tspan><tspan class="cls-47" x="7.49" y="0">r</tspan><tspan x="12.84" y="0">eelan</tspan><tspan class="cls-44" x="49.29" y="0">c</tspan><tspan x="55.58" y="0">e</tspan><tspan class="cls-48" x="63.32" y="0">r</tspan><tspan x="68.83" y="0">s</tspan></text><rect class="cls-49" x="226.39" y="316.91" width="117" height="27"/><text class="cls-43" transform="translate(230.06 335.28)"><tspan class="cls-46">F</tspan><tspan class="cls-47" x="7.49" y="0">r</tspan><tspan x="12.84" y="0">eelan</tspan><tspan class="cls-44" x="49.29" y="0">c</tspan><tspan x="55.58" y="0">e Ci</tspan><tspan class="cls-47" x="78.78" y="0">r</tspan><tspan x="84.13" y="0">cles</tspan></text></g></g></svg>